<svg width="48" height="48" viewBox="0 0 48 48" fill="none" xmlns="http://www.w3.org/2000/svg">
<path d="M12.0963 13.8462L22.3314 34.1538M12.0963 34.1538L22.3314 13.8462M46 11.7782V36.2218C45.9991 38.8149 44.9686 41.3015 43.1351 43.1351C41.3015 44.9686 38.8149 45.9991 36.2218 46H11.7815C9.1879 46 6.70044 44.9699 4.86614 43.1363C3.03185 41.3026 2.0009 38.8155 2 36.2218V11.7815C2 9.1879 3.03009 6.70044 4.86375 4.86614C6.69741 3.03185 9.18451 2.0009 11.7782 2H36.2218C38.8149 2.0009 41.3015 3.03138 43.1351 4.86495C44.9686 6.69851 45.9991 9.1851 46 11.7782Z" stroke="#2251B5" stroke-width="3" stroke-linecap="round" stroke-linejoin="round"/>
<path d="M35.8487 24.4842V32.702C35.8487 33.0871 35.715 33.4565 35.477 33.7288C35.2389 34.0011 34.9161 34.154 34.5795 34.154H31.6179C31.0621 34.1545 30.5116 34.0298 29.9979 33.787C29.4842 33.5441 29.0174 33.188 28.6242 32.7388C28.2309 32.2896 27.919 31.7563 27.7062 31.1692C27.4933 30.5822 27.3838 29.9529 27.3838 29.3174C27.3846 28.0353 27.8307 26.8059 28.624 25.8996C29.4173 24.9933 30.493 24.4842 31.6146 24.4842H35.8487ZM35.8487 24.4842V17.231" stroke="#2251B5" stroke-width="3" stroke-linecap="round" stroke-linejoin="round"/>
</svg>
