<svg width="48" height="48" viewBox="0 0 48 48" fill="none" xmlns="http://www.w3.org/2000/svg">
<path d="M46 11.7778V36.2222C46 38.8154 44.9698 41.3025 43.1362 43.1362C41.3025 44.9698 38.8154 46 36.2222 46H11.7778C9.18455 46 6.69753 44.9698 4.86384 43.1362C3.03016 41.3025 2 38.8154 2 36.2222V11.7778C2 9.18455 3.03016 6.69753 4.86384 4.86384C6.69753 3.03016 9.18455 2 11.7778 2H36.2222C38.8154 2 41.3025 3.03016 43.1362 4.86384C44.9698 6.69753 46 9.18455 46 11.7778Z" stroke="#2251B5" stroke-width="3" stroke-linecap="round" stroke-linejoin="round"/>
<path d="M28.8881 26.4434V23.999C28.8881 22.7024 29.4032 21.4588 30.32 20.542C31.2368 19.6252 32.4803 19.1101 33.777 19.1101C35.0736 19.1101 36.3171 19.6252 37.2339 20.542C38.1508 21.4588 38.6659 22.7024 38.6659 23.999V26.4434H28.8881ZM28.8881 26.4434V28.8879C28.8881 30.1845 29.4032 31.428 30.32 32.3448C31.2368 33.2617 32.4803 33.7767 33.777 33.7767H37.4436M9.33252 33.7767L12.0825 26.4434M12.0825 26.4434L16.6659 14.2212L21.2492 26.4434M12.0825 26.4434H21.2492M23.9992 33.7767L21.2492 26.4434" stroke="#2251B5" stroke-width="3" stroke-linecap="round" stroke-linejoin="round"/>
</svg>
