<svg width="48" height="48" viewBox="0 0 48 48" fill="none" xmlns="http://www.w3.org/2000/svg">
<g clip-path="url(#clip0_61_31)">
<path d="M9.99984 11.0001C9.99984 9.14357 10.7373 7.36309 12.0501 6.05034C13.3628 4.73758 15.1433 4.00008 16.9998 4.00008H23.9998V18.0001H16.9998C15.1433 18.0001 13.3628 17.2626 12.0501 15.9498C10.7373 14.6371 9.99984 12.8566 9.99984 11.0001Z" stroke="#E96429" stroke-width="3.9987" stroke-linecap="round" stroke-linejoin="round"/>
<path d="M24 4.00008H31C31.9193 4.00008 32.8295 4.18114 33.6788 4.53292C34.5281 4.88471 35.2997 5.40032 35.9498 6.05034C36.5998 6.70035 37.1154 7.47202 37.4672 8.3213C37.8189 9.17058 38 10.0808 38 11.0001C38 11.9193 37.8189 12.8296 37.4672 13.6789C37.1154 14.5282 36.5998 15.2998 35.9498 15.9498C35.2997 16.5998 34.5281 17.1155 33.6788 17.4672C32.8295 17.819 31.9193 18.0001 31 18.0001H24V4.00008Z" stroke="#E96429" stroke-width="3.9987" stroke-linecap="round" stroke-linejoin="round"/>
<path d="M24 25C24 24.0808 24.1811 23.1705 24.5328 22.3212C24.8846 21.4719 25.4002 20.7003 26.0503 20.0503C26.7003 19.4002 27.4719 18.8846 28.3212 18.5328C29.1705 18.1811 30.0808 18 31 18C31.9193 18 32.8295 18.1811 33.6788 18.5328C34.5281 18.8846 35.2997 19.4002 35.9498 20.0503C36.5998 20.7003 37.1154 21.4719 37.4672 22.3212C37.8189 23.1705 38 24.0808 38 25C38 25.9193 37.8189 26.8295 37.4672 27.6788C37.1154 28.5281 36.5998 29.2997 35.9498 29.9498C35.2997 30.5998 34.5281 31.1154 33.6788 31.4672C32.8295 31.819 31.9193 32 31 32C30.0808 32 29.1705 31.819 28.3212 31.4672C27.4719 31.1154 26.7003 30.5998 26.0503 29.9498C25.4002 29.2997 24.8846 28.5281 24.5328 27.6788C24.1811 26.8295 24 25.9193 24 25Z" stroke="#E96429" stroke-width="3.9987" stroke-linecap="round" stroke-linejoin="round"/>
<path d="M9.99984 38.9999C9.99984 37.1434 10.7373 35.3629 12.0501 34.0502C13.3628 32.7374 15.1433 31.9999 16.9998 31.9999H23.9998V38.9999C23.9998 40.8564 23.2623 42.6369 21.9496 43.9497C20.6368 45.2624 18.8564 45.9999 16.9998 45.9999C15.1433 45.9999 13.3628 45.2624 12.0501 43.9497C10.7373 42.6369 9.99984 40.8564 9.99984 38.9999Z" stroke="#E96429" stroke-width="3.9987" stroke-linecap="round" stroke-linejoin="round"/>
<path d="M9.99984 25C9.99984 23.1435 10.7373 21.363 12.0501 20.0503C13.3628 18.7375 15.1433 18 16.9998 18H23.9998V32H16.9998C15.1433 32 13.3628 31.2625 12.0501 29.9498C10.7373 28.637 9.99984 26.8565 9.99984 25Z" stroke="#E96429" stroke-width="3.9987" stroke-linecap="round" stroke-linejoin="round"/>
</g>
<defs>
<clipPath id="clip0_61_31">
<rect width="47.9844" height="47.9844" fill="white" transform="scale(1.00033)"/>
</clipPath>
</defs>
</svg>
