<svg width="48" height="48" viewBox="0 0 48 48" fill="none" xmlns="http://www.w3.org/2000/svg">
<path d="M34.1538 24V34.1538M34.1538 17.2071V17.2308M46 11.7782V36.2218C45.9991 38.8149 44.9686 41.3015 43.1351 43.1351C41.3015 44.9686 38.8149 45.9991 36.2218 46H11.7815C9.1879 46 6.70044 44.9699 4.86614 43.1363C3.03185 41.3026 2.0009 38.8155 2 36.2218V11.7815C2 9.1879 3.03009 6.70044 4.86375 4.86614C6.69741 3.03185 9.18451 2.0009 11.7782 2H36.2218C38.8149 2.0009 41.3015 3.03138 43.1351 4.86495C44.9686 6.69851 45.9991 9.1851 46 11.7782Z" stroke="#2251B5" stroke-width="3" stroke-linecap="round" stroke-linejoin="round"/>
<path d="M12.1514 34.1561L15.008 26.5407M15.008 26.5407L19.7668 13.8484L24.5255 26.5407M15.008 26.5407H24.5255M27.3821 34.1561L24.5255 26.5407" stroke="#2251B5" stroke-width="3" stroke-linecap="round" stroke-linejoin="round"/>
</svg>
