<svg width="48" height="48" viewBox="0 0 48 48" fill="none" xmlns="http://www.w3.org/2000/svg">
<path d="M4.7998 1.5H43.2002C44.0753 1.50005 44.9144 1.84798 45.5332 2.4668C46.152 3.08562 46.4999 3.92466 46.5 4.7998V43.2002C46.4999 44.0753 46.152 44.9144 45.5332 45.5332C44.9144 46.152 44.0753 46.4999 43.2002 46.5H4.7998C3.92466 46.4999 3.08562 46.152 2.4668 45.5332C1.84798 44.9144 1.50005 44.0753 1.5 43.2002V4.7998C1.50005 3.92466 1.84797 3.08562 2.4668 2.4668C3.08562 1.84797 3.92466 1.50005 4.7998 1.5ZM4.7998 1.7002C3.97771 1.70025 3.18972 2.02708 2.6084 2.6084C2.02708 3.18972 1.70025 3.97771 1.7002 4.7998V43.2002C1.70025 44.0223 2.02708 44.8103 2.6084 45.3916C3.18972 45.9729 3.97771 46.2998 4.7998 46.2998H43.2002C44.0223 46.2998 44.8103 45.9729 45.3916 45.3916C45.9729 44.8103 46.2998 44.0223 46.2998 43.2002V4.7998C46.2998 3.97771 45.9729 3.18972 45.3916 2.6084C44.8103 2.02708 44.0223 1.70025 43.2002 1.7002H4.7998ZM16.6826 19.0996L13.8916 28.9541L13.8848 28.9766L13.8789 28.999C13.6933 29.7402 13.4718 30.8082 13.4629 31.7803C13.4585 32.2587 13.5024 32.8383 13.7119 33.376C13.9363 33.9517 14.4043 34.5886 15.249 34.834H15.251C15.3628 34.8663 15.4756 34.89 15.5879 34.9102C14.7898 35.1711 13.9807 35.2998 13.333 35.2998C12.8484 35.2997 12.4844 35.0888 12.1816 34.6348C11.8491 34.136 11.6338 33.3774 11.6338 32.5332C11.6338 32.2465 11.7006 31.6574 11.8457 30.7959C11.9853 29.967 12.1813 28.9761 12.4014 27.9375C12.8412 25.8618 13.3696 23.6399 13.7217 22.2305L14.1875 20.3662H10.9883L11.3047 19.0996H16.6826ZM33.5996 19.0996C34.5762 19.0996 35.1795 19.5317 35.6221 20.3281C36.1147 21.2149 36.3662 22.5264 36.3662 24C36.3662 25.0217 35.8767 26.4529 35.2734 28.1475V28.1494C34.8959 29.2135 34.4632 30.4154 34.2959 31.4199C34.2121 31.9232 34.1653 32.5324 34.3154 33.1221C34.484 33.7836 34.9041 34.4115 35.6523 34.7559H35.6533C35.9165 34.8767 36.1863 34.9539 36.4561 34.9893C35.9155 35.1911 35.3181 35.2998 34.667 35.2998C34.1455 35.2998 32.6592 34.6375 32.6592 32.0791C32.6592 31.2343 32.967 30.0407 33.3711 28.5322L33.3721 28.5332C33.7718 27.0483 34.2854 25.1969 34.2236 23.6797C34.1913 22.8875 33.9996 21.9835 33.3779 21.2422C32.7288 20.4682 31.8036 20.0973 30.7734 20.0117C31.6164 19.4584 32.5573 19.0997 33.5996 19.0996ZM25.9658 19.0996L25.3652 21.5029L26.5537 22.0684C26.4907 22.1452 26.4309 22.2228 26.373 22.2988C25.4699 23.4853 24.898 24.8864 24.6777 25.7715L24.6699 25.8047L22.5391 35.2998H20.748L21.1562 34.0742L19.8018 33.5127C20.7114 32.7929 21.5305 31.8463 21.9629 30.8496L22.0039 30.7559L22.0312 30.6572L24.3779 22.2705L24.9111 20.3662H21.6543L21.9707 19.0996H25.9658ZM16.5332 10.5664C16.984 10.5664 17.4166 10.7457 17.7354 11.0645C18.0541 11.3832 18.2334 11.8158 18.2334 12.2666C18.2334 12.7175 18.0542 13.1499 17.7354 13.4688C17.4165 13.7875 16.9841 13.9668 16.5332 13.9668C16.0824 13.9668 15.6498 13.7875 15.3311 13.4688C15.0123 13.1499 14.833 12.7174 14.833 12.2666C14.833 11.8158 15.0123 11.3832 15.3311 11.0645C15.6498 10.7457 16.0824 10.5664 16.5332 10.5664Z" stroke="#2251B5" stroke-width="3"/>
</svg>
