<svg width="48" height="48" viewBox="0 0 48 48" fill="none" xmlns="http://www.w3.org/2000/svg">
<path d="M46 11.7782V36.2218C45.9991 38.8149 44.9686 41.3015 43.1351 43.1351C41.3015 44.9686 38.8149 45.9991 36.2218 46H11.7815C9.1879 46 6.70044 44.9699 4.86614 43.1363C3.03185 41.3026 2.0009 38.8155 2 36.2218V11.7815C2 9.1879 3.03009 6.70044 4.86375 4.86614C6.69741 3.03185 9.18451 2.0009 11.7782 2H36.2218C38.8149 2.0009 41.3015 3.03138 43.1351 4.86495C44.9686 6.69851 45.9991 9.1851 46 11.7782Z" stroke="#2251B5" stroke-width="3" stroke-linecap="round" stroke-linejoin="round"/>
<path d="M12.1538 34.1536V23.9998M12.1538 23.9998V13.8459H16.8923C17.5145 13.8459 18.1307 13.9773 18.7056 14.2324C19.2805 14.4875 19.8029 14.8615 20.2429 15.3329C20.6829 15.8044 21.0319 16.3641 21.27 16.98C21.5082 17.596 21.6307 18.2562 21.6307 18.9229C21.6307 19.5896 21.5082 20.2498 21.27 20.8657C21.0319 21.4817 20.6829 22.0414 20.2429 22.5128C19.8029 22.9842 19.2805 23.3582 18.7056 23.6133C18.1307 23.8685 17.5145 23.9998 16.8923 23.9998H12.1538ZM35.8461 21.4613C35.1218 19.9044 33.636 18.9229 32.0113 18.9229H31.1077C30.641 18.9229 30.1788 19.0214 29.7477 19.2127C29.3165 19.4041 28.9247 19.6845 28.5947 20.0381C28.2647 20.3917 28.0029 20.8115 27.8243 21.2734C27.6457 21.7354 27.5538 22.2305 27.5538 22.7306C27.5538 23.2306 27.6457 23.7257 27.8243 24.1877C28.0029 24.6497 28.2647 25.0694 28.5947 25.423C28.9247 25.7766 29.3165 26.0571 29.7477 26.2484C30.1788 26.4398 30.641 26.5383 31.1077 26.5383H32.2923C32.759 26.5383 33.2211 26.6367 33.6523 26.8281C34.0834 27.0195 34.4752 27.2999 34.8052 27.6535C35.1352 28.0071 35.397 28.4268 35.5756 28.8888C35.7542 29.3508 35.8461 29.8459 35.8461 30.3459C35.8461 30.846 35.7542 31.3411 35.5756 31.8031C35.397 32.2651 35.1352 32.6848 34.8052 33.0384C34.4752 33.392 34.0834 33.6724 33.6523 33.8638C33.2211 34.0552 32.759 34.1536 32.2923 34.1536H31.3886C30.5925 34.1541 29.812 33.9169 29.1347 33.4685C28.4573 33.0201 27.9099 32.3784 27.5538 31.6152" stroke="#2251B5" stroke-width="3" stroke-linecap="round" stroke-linejoin="round"/>
</svg>
