<svg width="10" height="6" viewBox="0 0 10 6" fill="none" xmlns="http://www.w3.org/2000/svg">
<mask id="mask0_2_639" style="mask-type:alpha" maskUnits="userSpaceOnUse" x="-6" y="-8" width="22" height="22">
<rect x="-5.76234" y="-7.55604" width="21.5246" height="21.5246" fill="#D9D9D9"/>
</mask>
<g mask="url(#mask0_2_639)">
<path d="M4.66367 5.81837C4.55903 5.781 4.46187 5.71748 4.37219 5.62779L0.246636 1.50224C0.0822121 1.33781 0 1.12855 0 0.874437C0 0.620327 0.0822121 0.41106 0.246636 0.246636C0.41106 0.0822121 0.620327 0 0.874438 0C1.12855 0 1.33781 0.0822121 1.50224 0.246636L4.99999 3.74439L8.49774 0.246636C8.66216 0.0822121 8.87143 0 9.12554 0C9.37965 0 9.58892 0.0822121 9.75334 0.246636C9.91777 0.41106 9.99998 0.620327 9.99998 0.874437C9.99998 1.12855 9.91777 1.33781 9.75334 1.50224L5.62779 5.62779C5.5381 5.71748 5.44095 5.781 5.33631 5.81837C5.23168 5.85574 5.11957 5.87443 4.99999 5.87443C4.88041 5.87443 4.7683 5.85574 4.66367 5.81837Z" fill="#4A5565"/>
</g>
</svg>
